<svg xmlns="http://www.w3.org/2000/svg" viewBox="0 0 800 600">
  <defs>
    <linearGradient id="gg1" x1="0" x2="1" y1="0" y2="1">
      <stop offset="0%" stop-color="#38bdf8" />
      <stop offset="100%" stop-color="#818cf8" />
    </linearGradient>
    <linearGradient id="gg2" x1="0" x2="1" y1="1" y2="0">
      <stop offset="0%" stop-color="#22c55e" />
      <stop offset="100%" stop-color="#0ea5e9" />
    </linearGradient>
  </defs>
  <rect width="800" height="600" rx="40" fill="#08131f" />
  <rect x="130" y="120" width="420" height="260" rx="32" fill="#0f172a" stroke="url(#gg2)" stroke-width="14" />
  <circle cx="240" cy="235" r="80" fill="url(#gg1)" opacity="0.32" />
  <rect x="190" y="190" width="180" height="24" rx="12" fill="#ffffff" opacity="0.85" />
  <rect x="190" y="230" width="220" height="18" rx="9" fill="#ffffff" opacity="0.35" />
  <rect x="190" y="264" width="240" height="18" rx="9" fill="#ffffff" opacity="0.35" />
  <rect x="190" y="298" width="200" height="18" rx="9" fill="#ffffff" opacity="0.35" />
  <rect x="190" y="340" width="320" height="18" rx="9" fill="#ffffff" opacity="0.35" />
  <rect x="560" y="140" width="180" height="180" rx="24" fill="#0f172a" stroke="#94a3b8" stroke-width="12" />
  <circle cx="650" cy="210" r="28" fill="#22c55e" opacity="0.8" />
  <rect x="578" y="260" width="144" height="120" rx="20" fill="#38bdf8" opacity="0.18" />
  <rect x="140" y="420" width="220" height="120" rx="30" fill="#0f172a" stroke="#f8fafc" stroke-width="8" opacity="0.48" />
  <rect x="170" y="450" width="160" height="22" rx="11" fill="#ffffff" opacity="0.7" />
  <rect x="170" y="488" width="120" height="18" rx="9" fill="#ffffff" opacity="0.36" />
  <rect x="440" y="420" width="220" height="160" rx="30" fill="#0f172a" stroke="url(#gg1)" stroke-width="12" />
  <rect x="470" y="455" width="160" height="24" rx="12" fill="#ffffff" opacity="0.2" />
  <rect x="470" y="495" width="120" height="18" rx="9" fill="#ffffff" opacity="0.2" />
  <circle cx="530" cy="530" r="16" fill="#ffffff" opacity="0.8" />
  <text x="120" y="560" fill="#f8fafc" font-family="Inter, sans-serif" font-size="42" font-weight="700">AI Graphics</text>
  <text x="120" y="604" fill="#94a3b8" font-family="Inter, sans-serif" font-size="28">Creative Mockup</text>
</svg>