<svg xmlns="http://www.w3.org/2000/svg" viewBox="0 0 800 600">
  <defs>
    <linearGradient id="s1" x1="0" x2="1" y1="0" y2="1">
      <stop offset="0%" stop-color="#22c55e" />
      <stop offset="100%" stop-color="#0ea5e9" />
    </linearGradient>
    <linearGradient id="s2" x1="0" x2="1" y1="1" y2="0">
      <stop offset="0%" stop-color="#38bdf8" />
      <stop offset="100%" stop-color="#4f46e5" />
    </linearGradient>
  </defs>
  <rect width="800" height="600" rx="40" fill="#02111d" />
  <rect x="110" y="120" width="270" height="220" rx="30" fill="#0f172a" stroke="url(#s1)" stroke-width="14" />
  <rect x="430" y="120" width="230" height="310" rx="30" fill="#0f172a" stroke="url(#s2)" stroke-width="14" />
  <rect x="140" y="160" width="210" height="32" rx="16" fill="#ffffff" opacity="0.15" />
  <rect x="140" y="210" width="180" height="18" rx="9" fill="#ffffff" opacity="0.5" />
  <rect x="140" y="250" width="140" height="18" rx="9" fill="#38bdf8" opacity="0.6" />
  <circle cx="190" cy="320" r="22" fill="#22c55e" opacity="0.9" />
  <circle cx="250" cy="360" r="16" fill="#38bdf8" opacity="0.75" />
  <rect x="470" y="170" width="160" height="26" rx="13" fill="#ffffff" opacity="0.18" />
  <rect x="470" y="210" width="180" height="20" rx="10" fill="#ffffff" opacity="0.24" />
  <rect x="470" y="245" width="120" height="18" rx="9" fill="#ffffff" opacity="0.24" />
  <rect x="470" y="280" width="80" height="18" rx="9" fill="#22c55e" opacity="0.35" />
  <rect x="470" y="315" width="130" height="16" rx="8" fill="#0ea5e9" opacity="0.35" />
  <rect x="470" y="345" width="170" height="16" rx="8" fill="#38bdf8" opacity="0.18" />
  <rect x="470" y="380" width="180" height="18" rx="9" fill="#ffffff" opacity="0.15" />
  <path d="M140 410h220" stroke="#ffffff" stroke-width="14" stroke-linecap="round" opacity="0.2" />
  <rect x="120" y="400" width="100" height="24" rx="12" fill="url(#s1)" opacity="0.22" />
  <rect x="240" y="430" width="110" height="20" rx="10" fill="#4f46e5" opacity="0.3" />
  <circle cx="590" cy="470" r="40" fill="#38bdf8" opacity="0.3" />
  <circle cx="540" cy="480" r="22" fill="#22c55e" opacity="0.9" />
  <rect x="500" y="500" width="120" height="14" rx="7" fill="#ffffff" opacity="0.2" />
  <text x="120" y="560" fill="#f8fafc" font-family="Inter, sans-serif" font-size="42" font-weight="700">AI SEO</text>
  <text x="120" y="604" fill="#94a3b8" font-family="Inter, sans-serif" font-size="28">Growth Dashboard</text>
</svg>