<svg xmlns="http://www.w3.org/2000/svg" viewBox="0 0 800 600">
  <defs>
    <linearGradient id="g1" x1="0" x2="1" y1="0" y2="1">
      <stop offset="0%" stop-color="#22c55e" />
      <stop offset="100%" stop-color="#0ea5e9" />
    </linearGradient>
    <linearGradient id="g2" x1="0" x2="1" y1="1" y2="0">
      <stop offset="0%" stop-color="#38bdf8" />
      <stop offset="100%" stop-color="#0ea5e9" />
    </linearGradient>
  </defs>
  <rect width="800" height="600" rx="40" fill="#08131f" />
  <rect x="80" y="120" width="620" height="340" rx="32" fill="#0f172a" stroke="url(#g1)" stroke-width="16" />
  <rect x="120" y="160" width="520" height="60" rx="18" fill="#0ea5e9" opacity="0.16" />
  <rect x="120" y="260" width="220" height="32" rx="12" fill="#ffffff" opacity="0.85" />
  <rect x="120" y="310" width="420" height="24" rx="12" fill="#ffffff" opacity="0.24" />
  <rect x="120" y="354" width="320" height="24" rx="12" fill="#ffffff" opacity="0.24" />
  <rect x="120" y="402" width="180" height="24" rx="12" fill="#ffffff" opacity="0.24" />
  <rect x="410" y="260" width="170" height="120" rx="20" fill="url(#g2)" opacity="0.15" />
  <circle cx="495" cy="310" r="14" fill="#ffffff" opacity="0.85" />
  <rect x="450" y="340" width="90" height="22" rx="11" fill="#ffffff" opacity="0.48" />
  <rect x="410" y="380" width="120" height="22" rx="11" fill="#ffffff" opacity="0.38" />
  <path d="M240 200h320" stroke="#ffffff" stroke-width="10" stroke-linecap="round" opacity="0.35" />
  <rect x="180" y="200" width="36" height="36" rx="10" fill="#38bdf8" />
  <rect x="230" y="200" width="36" height="36" rx="10" fill="#22c55e" />
  <rect x="280" y="200" width="36" height="36" rx="10" fill="#0ea5e9" />
  <circle cx="160" cy="460" r="64" fill="url(#g2)" opacity="0.35" />
  <circle cx="620" cy="460" r="52" fill="url(#g1)" opacity="0.35" />
  <text x="120" y="560" fill="#f8fafc" font-family="Inter, sans-serif" font-size="42" font-weight="700">AI Web</text>
  <text x="120" y="604" fill="#94a3b8" font-family="Inter, sans-serif" font-size="28">Design Preview</text>
</svg>