<svg xmlns="http://www.w3.org/2000/svg" viewBox="0 0 800 600">
  <defs>
    <linearGradient id="gd1" x1="0" x2="1" y1="0" y2="1">
      <stop offset="0%" stop-color="#2563eb" />
      <stop offset="100%" stop-color="#818cf8" />
    </linearGradient>
    <linearGradient id="gd2" x1="0" x2="1" y1="1" y2="0">
      <stop offset="0%" stop-color="#22c55e" />
      <stop offset="100%" stop-color="#38bdf8" />
    </linearGradient>
  </defs>
  <rect width="800" height="600" rx="40" fill="#08131f" />
  <rect x="100" y="110" width="300" height="260" rx="32" fill="#0f172a" stroke="url(#gd1)" stroke-width="14" />
  <rect x="130" y="150" width="240" height="38" rx="18" fill="#38bdf8" opacity="0.22" />
  <rect x="130" y="220" width="180" height="24" rx="12" fill="#f8fafc" opacity="0.85" />
  <rect x="130" y="260" width="220" height="24" rx="12" fill="#ffffff" opacity="0.25" />
  <rect x="130" y="308" width="240" height="24" rx="12" fill="#ffffff" opacity="0.25" />
  <rect x="130" y="356" width="260" height="18" rx="9" fill="#ffffff" opacity="0.18" />
  <rect x="460" y="130" width="220" height="310" rx="32" fill="#0f172a" stroke="url(#gd2)" stroke-width="14" />
  <rect x="500" y="180" width="140" height="42" rx="16" fill="#ffffff" opacity="0.15" />
  <rect x="490" y="260" width="100" height="18" rx="9" fill="#ffffff" opacity="0.45" />
  <rect x="540" y="300" width="80" height="18" rx="9" fill="#ffffff" opacity="0.45" />
  <circle cx="530" cy="380" r="28" fill="#22c55e" opacity="0.72" />
  <circle cx="590" cy="440" r="18" fill="#38bdf8" opacity="0.8" />
  <line x1="160" y1="200" x2="360" y2="200" stroke="#f8fafc" stroke-width="18" stroke-linecap="round" opacity="0.7" />
  <line x1="160" y1="250" x2="360" y2="250" stroke="#f8fafc" stroke-width="18" stroke-linecap="round" opacity="0.5" />
  <path d="M260 430h240" stroke="#f8fafc" stroke-width="22" stroke-linecap="round" opacity="0.22" />
  <text x="120" y="560" fill="#f8fafc" font-family="Inter, sans-serif" font-size="42" font-weight="700">AI Dev</text>
  <text x="120" y="604" fill="#94a3b8" font-family="Inter, sans-serif" font-size="28">Project Preview</text>
</svg>