<svg xmlns="http://www.w3.org/2000/svg" xmlns:xlink="http://www.w3.org/1999/xlink" width="140" zoomAndPan="magnify" viewBox="0 0 104.88 30.000001" height="40" preserveAspectRatio="xMidYMid meet" version="1.0"><defs><g/><clipPath id="0519b38f33"><path d="M 16.613281 0.660156 L 47.097656 0.660156 L 47.097656 28.242188 L 16.613281 28.242188 Z M 16.613281 0.660156 " clip-rule="nonzero"/></clipPath><clipPath id="27e1a1d915"><path d="M 16.613281 9 L 27 9 L 27 17 L 16.613281 17 Z M 16.613281 9 " clip-rule="nonzero"/></clipPath><clipPath id="ab39519d17"><rect x="0" width="56" y="0" height="15"/></clipPath></defs><g clip-path="url(#0519b38f33)"><path fill="#ffffff" d="M 47.398438 0.660156 L 42.472656 0.660156 C 41.320312 0.660156 40.394531 1.507812 40.394531 1.507812 L 16.617188 23.746094 L 21.539062 23.746094 C 22.773438 23.746094 23.617188 22.902344 23.617188 22.902344 L 26.773438 20.054688 L 34.164062 27.441406 C 34.164062 27.441406 35.085938 28.363281 36.394531 28.363281 L 41.242188 28.363281 L 29.929688 17.050781 Z M 47.398438 0.660156 " fill-opacity="1" fill-rule="nonzero"/></g><g clip-path="url(#27e1a1d915)"><path fill="#1c8ec9" d="M 26.3125 13.433594 L 23.695312 10.820312 C 23.695312 10.820312 22.773438 9.894531 21.464844 9.894531 L 16.617188 9.894531 L 23.082031 16.359375 Z M 26.3125 13.433594 " fill-opacity="1" fill-rule="nonzero"/></g><g transform="matrix(1, 0, 0, 1, 35, 8)"><g clip-path="url(#ab39519d17)"><g fill="#1c8ec9" fill-opacity="1"><g transform="translate(0.998285, 11.242287)"><g><path d="M 5.441406 -1.183594 L 2.144531 -1.183594 C 1.863281 -1.183594 1.683594 -1.191406 1.683594 -1.484375 L 1.683594 -3.515625 C 1.683594 -3.808594 1.863281 -3.820312 2.144531 -3.820312 L 5.441406 -3.820312 L 5.441406 -5.003906 L 1.695312 -5.003906 C 1.046875 -5.003906 0.441406 -4.9375 0.441406 -4.058594 L 0.441406 -0.941406 C 0.441406 -0.0625 1.046875 0 1.695312 0 L 5.441406 0 Z M 5.441406 -1.183594 "/></g></g></g><g fill="#1c8ec9" fill-opacity="1"><g transform="translate(6.691048, 11.242287)"><g><path d="M 1.738281 0 L 1.738281 -6.980469 L 0.492188 -6.980469 L 0.492188 0 Z M 1.738281 0 "/></g></g></g><g fill="#1c8ec9" fill-opacity="1"><g transform="translate(8.930478, 11.242287)"><g><path d="M 1.683594 -5.003906 L 0.441406 -5.003906 L 0.441406 -0.941406 C 0.441406 -0.0625 1.046875 0 1.695312 0 L 5.441406 0 L 5.441406 -5.003906 L 4.195312 -5.003906 L 4.195312 -1.183594 L 2.144531 -1.183594 C 1.863281 -1.183594 1.683594 -1.191406 1.683594 -1.484375 Z M 1.683594 -5.003906 "/></g></g></g><g fill="#1c8ec9" fill-opacity="1"><g transform="translate(14.874391, 11.242287)"><g><path d="M 0.441406 -2.855469 C 0.441406 -1.976562 1.046875 -1.914062 1.695312 -1.914062 L 3.734375 -1.914062 C 4.019531 -1.914062 4.195312 -1.90625 4.195312 -1.613281 L 4.195312 -1.484375 C 4.195312 -1.191406 4.019531 -1.183594 3.734375 -1.183594 L 0.441406 -1.183594 L 0.441406 0 L 4.1875 0 C 4.835938 0 5.441406 -0.0625 5.441406 -0.941406 L 5.441406 -2.15625 C 5.441406 -3.035156 4.824219 -3.097656 4.175781 -3.097656 L 2.144531 -3.097656 C 1.863281 -3.097656 1.683594 -3.109375 1.683594 -3.402344 L 1.683594 -3.515625 C 1.683594 -3.808594 1.863281 -3.820312 2.144531 -3.820312 L 5.441406 -3.820312 L 5.441406 -5.003906 L 1.695312 -5.003906 C 1.046875 -5.003906 0.441406 -4.9375 0.441406 -4.070312 Z M 0.441406 -2.855469 "/></g></g></g><g fill="#1c8ec9" fill-opacity="1"><g transform="translate(20.765983, 11.242287)"><g><path d="M 1.738281 -5.785156 L 1.738281 -6.980469 L 0.492188 -6.980469 L 0.492188 -5.785156 Z M 1.738281 0 L 1.738281 -5.003906 L 0.492188 -5.003906 L 0.492188 0 Z M 1.738281 0 "/></g></g></g><g fill="#1c8ec9" fill-opacity="1"><g transform="translate(23.005412, 11.242287)"><g><path d="M 5.566406 -5.003906 L 4.257812 -5.003906 L 3.117188 -1.582031 C 3.003906 -1.246094 2.949219 -1.191406 2.65625 -1.183594 L 1.738281 -1.183594 L 1.738281 -5.003906 L 0.492188 -5.003906 L 0.492188 0 L 2.679688 0 C 3.871094 0 3.933594 -0.09375 4.3125 -1.222656 Z M 5.566406 -5.003906 "/></g></g></g><g fill="#1c8ec9" fill-opacity="1"><g transform="translate(28.687711, 11.242287)"><g><path d="M 0.441406 -0.941406 C 0.441406 -0.0625 1.046875 0 1.695312 0 L 5.441406 0 L 5.441406 -1.183594 L 2.144531 -1.183594 C 1.863281 -1.183594 1.683594 -1.191406 1.683594 -1.484375 L 1.683594 -1.914062 L 5.441406 -1.914062 L 5.441406 -4.058594 C 5.441406 -4.9375 4.835938 -5.003906 4.1875 -5.003906 L 1.695312 -5.003906 C 1.046875 -5.003906 0.441406 -4.9375 0.441406 -4.058594 Z M 1.683594 -3.515625 C 1.683594 -3.808594 1.863281 -3.820312 2.144531 -3.820312 L 3.734375 -3.820312 C 4.019531 -3.820312 4.195312 -3.808594 4.195312 -3.515625 L 4.195312 -3.097656 L 1.683594 -3.097656 Z M 1.683594 -3.515625 "/></g></g></g><g fill="#1c8ec9" fill-opacity="1"><g transform="translate(34.579303, 11.242287)"><g><path d="M 2.992188 -3.820312 L 2.992188 -5.003906 L 1.738281 -5.003906 L 1.738281 -5.785156 L 0.492188 -5.785156 L 0.492188 0 L 1.738281 0 L 1.738281 -3.820312 Z M 2.992188 -3.820312 "/></g></g></g><g fill="#1c8ec9" fill-opacity="1"><g transform="translate(37.791946, 11.242287)"><g><path d="M 0.441406 -0.941406 C 0.441406 -0.0625 1.046875 0 1.695312 0 L 5.441406 0 L 5.441406 -1.183594 L 2.144531 -1.183594 C 1.863281 -1.183594 1.683594 -1.191406 1.683594 -1.484375 L 1.683594 -1.914062 L 5.441406 -1.914062 L 5.441406 -4.058594 C 5.441406 -4.9375 4.835938 -5.003906 4.1875 -5.003906 L 1.695312 -5.003906 C 1.046875 -5.003906 0.441406 -4.9375 0.441406 -4.058594 Z M 1.683594 -3.515625 C 1.683594 -3.808594 1.863281 -3.820312 2.144531 -3.820312 L 3.734375 -3.820312 C 4.019531 -3.820312 4.195312 -3.808594 4.195312 -3.515625 L 4.195312 -3.097656 L 1.683594 -3.097656 Z M 1.683594 -3.515625 "/></g></g></g><g fill="#1c8ec9" fill-opacity="1"><g transform="translate(43.683538, 11.242287)"><g><path d="M 5.441406 -1.183594 L 2.144531 -1.183594 C 1.863281 -1.183594 1.683594 -1.191406 1.683594 -1.484375 L 1.683594 -3.515625 C 1.683594 -3.808594 1.863281 -3.820312 2.144531 -3.820312 L 5.441406 -3.820312 L 5.441406 -5.003906 L 1.695312 -5.003906 C 1.046875 -5.003906 0.441406 -4.9375 0.441406 -4.058594 L 0.441406 -0.941406 C 0.441406 -0.0625 1.046875 0 1.695312 0 L 5.441406 0 Z M 5.441406 -1.183594 "/></g></g></g><g fill="#1c8ec9" fill-opacity="1"><g transform="translate(49.376302, 11.242287)"><g><path d="M 4.25 0 L 5.492188 0 L 5.492188 -4.058594 C 5.492188 -4.9375 4.886719 -5.003906 4.238281 -5.003906 L 1.738281 -5.003906 L 1.738281 -6.980469 L 0.492188 -6.980469 L 0.492188 0 L 1.738281 0 L 1.738281 -3.820312 L 3.789062 -3.820312 C 4.070312 -3.820312 4.25 -3.808594 4.25 -3.515625 Z M 4.25 0 "/></g></g></g></g></g></svg>