<svg xmlns="http://www.w3.org/2000/svg" xmlns:xlink="http://www.w3.org/1999/xlink" width="40" zoomAndPan="magnify" viewBox="0 0 30 30.000001" height="40" preserveAspectRatio="xMidYMid meet" version="1.0"><defs><clipPath id="caa3cbdaa7"><path d="M 0.738281 1.566406 L 29.515625 1.566406 L 29.515625 27.695312 L 0.738281 27.695312 Z M 0.738281 1.566406 " clip-rule="nonzero"/></clipPath><clipPath id="ee257f1a94"><path d="M 0.738281 10 L 10 10 L 10 17 L 0.738281 17 Z M 0.738281 10 " clip-rule="nonzero"/></clipPath></defs><g clip-path="url(#caa3cbdaa7)"><path fill="#ffffff" d="M 29.507812 1.566406 L 24.90625 1.566406 C 23.828125 1.566406 22.964844 2.359375 22.964844 2.359375 L 0.742188 23.140625 L 5.34375 23.140625 C 6.496094 23.140625 7.285156 22.351562 7.285156 22.351562 L 10.234375 19.691406 L 17.136719 26.59375 C 17.136719 26.59375 18 27.457031 19.222656 27.457031 L 23.753906 27.457031 L 13.183594 16.886719 Z M 29.507812 1.566406 " fill-opacity="1" fill-rule="nonzero"/></g><g clip-path="url(#ee257f1a94)"><path fill="#1c8ec9" d="M 9.804688 13.503906 L 7.359375 11.058594 C 7.359375 11.058594 6.496094 10.195312 5.273438 10.195312 L 0.742188 10.195312 L 6.78125 16.238281 Z M 9.804688 13.503906 " fill-opacity="1" fill-rule="nonzero"/></g></svg>