<svg xmlns="http://www.w3.org/2000/svg" xmlns:xlink="http://www.w3.org/1999/xlink" width="220" zoomAndPan="magnify" viewBox="0 0 165 44.999999" height="60" preserveAspectRatio="xMidYMid meet" version="1.0"><defs><g/><clipPath id="e9c5228520"><path d="M 24.324219 0 L 74.574219 0 L 74.574219 45 L 24.324219 45 Z M 24.324219 0 " clip-rule="nonzero"/></clipPath><clipPath id="9d7effff99"><path d="M 24.324219 15 L 41 15 L 41 26 L 24.324219 26 Z M 24.324219 15 " clip-rule="nonzero"/></clipPath><clipPath id="970c0037c0"><rect x="0" width="90" y="0" height="24"/></clipPath></defs><g clip-path="url(#e9c5228520)"><path fill="#ffffff" d="M 74.316406 0.00390625 L 66.316406 0.00390625 C 64.441406 0.00390625 62.941406 1.378906 62.941406 1.378906 L 24.324219 37.496094 L 32.320312 37.496094 C 34.320312 37.496094 35.695312 36.121094 35.695312 36.121094 L 40.820312 31.5 L 52.816406 43.496094 C 52.816406 43.496094 54.316406 44.996094 56.441406 44.996094 L 64.316406 44.996094 L 45.945312 26.625 Z M 74.316406 0.00390625 " fill-opacity="1" fill-rule="nonzero"/></g><g clip-path="url(#9d7effff99)"><path fill="#1c8ec9" d="M 40.070312 20.75 L 35.820312 16.5 C 35.820312 16.5 34.320312 15 32.195312 15 L 24.324219 15 L 34.820312 25.5 Z M 40.070312 20.75 " fill-opacity="1" fill-rule="nonzero"/></g><g transform="matrix(1, 0, 0, 1, 55, 12)"><g clip-path="url(#970c0037c0)"><g fill="#1c8ec9" fill-opacity="1"><g transform="translate(0.801789, 18.174375)"><g><path d="M 8.835938 -1.921875 L 3.484375 -1.921875 C 3.023438 -1.921875 2.734375 -1.9375 2.734375 -2.414062 L 2.734375 -5.710938 C 2.734375 -6.183594 3.023438 -6.203125 3.484375 -6.203125 L 8.835938 -6.203125 L 8.835938 -8.121094 L 2.753906 -8.121094 C 1.699219 -8.121094 0.714844 -8.019531 0.714844 -6.59375 L 0.714844 -1.53125 C 0.714844 -0.101562 1.699219 0 2.753906 0 L 8.835938 0 Z M 8.835938 -1.921875 "/></g></g></g><g fill="#1c8ec9" fill-opacity="1"><g transform="translate(10.045752, 18.174375)"><g><path d="M 2.820312 0 L 2.820312 -11.335938 L 0.796875 -11.335938 L 0.796875 0 Z M 2.820312 0 "/></g></g></g><g fill="#1c8ec9" fill-opacity="1"><g transform="translate(13.682159, 18.174375)"><g><path d="M 2.734375 -8.121094 L 0.714844 -8.121094 L 0.714844 -1.53125 C 0.714844 -0.101562 1.699219 0 2.753906 0 L 8.835938 0 L 8.835938 -8.121094 L 6.8125 -8.121094 L 6.8125 -1.921875 L 3.484375 -1.921875 C 3.023438 -1.921875 2.734375 -1.9375 2.734375 -2.414062 Z M 2.734375 -8.121094 "/></g></g></g><g fill="#1c8ec9" fill-opacity="1"><g transform="translate(23.333941, 18.174375)"><g><path d="M 0.714844 -4.640625 C 0.714844 -3.210938 1.699219 -3.109375 2.753906 -3.109375 L 6.066406 -3.109375 C 6.523438 -3.109375 6.8125 -3.09375 6.8125 -2.617188 L 6.8125 -2.414062 C 6.8125 -1.9375 6.523438 -1.921875 6.066406 -1.921875 L 0.714844 -1.921875 L 0.714844 0 L 6.796875 0 C 7.851562 0 8.835938 -0.101562 8.835938 -1.53125 L 8.835938 -3.5 C 8.835938 -4.929688 7.832031 -5.03125 6.78125 -5.03125 L 3.484375 -5.03125 C 3.023438 -5.03125 2.734375 -5.046875 2.734375 -5.523438 L 2.734375 -5.710938 C 2.734375 -6.183594 3.023438 -6.203125 3.484375 -6.203125 L 8.835938 -6.203125 L 8.835938 -8.121094 L 2.753906 -8.121094 C 1.699219 -8.121094 0.714844 -8.019531 0.714844 -6.609375 Z M 0.714844 -4.640625 "/></g></g></g><g fill="#1c8ec9" fill-opacity="1"><g transform="translate(32.900763, 18.174375)"><g><path d="M 2.820312 -9.398438 L 2.820312 -11.335938 L 0.796875 -11.335938 L 0.796875 -9.398438 Z M 2.820312 0 L 2.820312 -8.121094 L 0.796875 -8.121094 L 0.796875 0 Z M 2.820312 0 "/></g></g></g><g fill="#1c8ec9" fill-opacity="1"><g transform="translate(36.53717, 18.174375)"><g><path d="M 9.039062 -8.121094 L 6.914062 -8.121094 L 5.0625 -2.566406 C 4.875 -2.023438 4.792969 -1.9375 4.316406 -1.921875 L 2.820312 -1.921875 L 2.820312 -8.121094 L 0.796875 -8.121094 L 0.796875 0 L 4.351562 0 C 6.289062 0 6.390625 -0.152344 7 -1.988281 Z M 9.039062 -8.121094 "/></g></g></g><g fill="#1c8ec9" fill-opacity="1"><g transform="translate(45.764139, 18.174375)"><g><path d="M 0.714844 -1.53125 C 0.714844 -0.101562 1.699219 0 2.753906 0 L 8.835938 0 L 8.835938 -1.921875 L 3.484375 -1.921875 C 3.023438 -1.921875 2.734375 -1.9375 2.734375 -2.414062 L 2.734375 -3.109375 L 8.835938 -3.109375 L 8.835938 -6.59375 C 8.835938 -8.019531 7.851562 -8.121094 6.796875 -8.121094 L 2.753906 -8.121094 C 1.699219 -8.121094 0.714844 -8.019531 0.714844 -6.59375 Z M 2.734375 -5.710938 C 2.734375 -6.183594 3.023438 -6.203125 3.484375 -6.203125 L 6.066406 -6.203125 C 6.523438 -6.203125 6.8125 -6.183594 6.8125 -5.710938 L 6.8125 -5.03125 L 2.734375 -5.03125 Z M 2.734375 -5.710938 "/></g></g></g><g fill="#1c8ec9" fill-opacity="1"><g transform="translate(55.330962, 18.174375)"><g><path d="M 4.859375 -6.203125 L 4.859375 -8.121094 L 2.820312 -8.121094 L 2.820312 -9.398438 L 0.796875 -9.398438 L 0.796875 0 L 2.820312 0 L 2.820312 -6.203125 Z M 4.859375 -6.203125 "/></g></g></g><g fill="#1c8ec9" fill-opacity="1"><g transform="translate(60.547683, 18.174375)"><g><path d="M 0.714844 -1.53125 C 0.714844 -0.101562 1.699219 0 2.753906 0 L 8.835938 0 L 8.835938 -1.921875 L 3.484375 -1.921875 C 3.023438 -1.921875 2.734375 -1.9375 2.734375 -2.414062 L 2.734375 -3.109375 L 8.835938 -3.109375 L 8.835938 -6.59375 C 8.835938 -8.019531 7.851562 -8.121094 6.796875 -8.121094 L 2.753906 -8.121094 C 1.699219 -8.121094 0.714844 -8.019531 0.714844 -6.59375 Z M 2.734375 -5.710938 C 2.734375 -6.183594 3.023438 -6.203125 3.484375 -6.203125 L 6.066406 -6.203125 C 6.523438 -6.203125 6.8125 -6.183594 6.8125 -5.710938 L 6.8125 -5.03125 L 2.734375 -5.03125 Z M 2.734375 -5.710938 "/></g></g></g><g fill="#1c8ec9" fill-opacity="1"><g transform="translate(70.114505, 18.174375)"><g><path d="M 8.835938 -1.921875 L 3.484375 -1.921875 C 3.023438 -1.921875 2.734375 -1.9375 2.734375 -2.414062 L 2.734375 -5.710938 C 2.734375 -6.183594 3.023438 -6.203125 3.484375 -6.203125 L 8.835938 -6.203125 L 8.835938 -8.121094 L 2.753906 -8.121094 C 1.699219 -8.121094 0.714844 -8.019531 0.714844 -6.59375 L 0.714844 -1.53125 C 0.714844 -0.101562 1.699219 0 2.753906 0 L 8.835938 0 Z M 8.835938 -1.921875 "/></g></g></g><g fill="#1c8ec9" fill-opacity="1"><g transform="translate(79.358468, 18.174375)"><g><path d="M 6.898438 0 L 8.921875 0 L 8.921875 -6.59375 C 8.921875 -8.019531 7.933594 -8.121094 6.882812 -8.121094 L 2.820312 -8.121094 L 2.820312 -11.335938 L 0.796875 -11.335938 L 0.796875 0 L 2.820312 0 L 2.820312 -6.203125 L 6.152344 -6.203125 C 6.609375 -6.203125 6.898438 -6.183594 6.898438 -5.710938 Z M 6.898438 0 "/></g></g></g></g></g></svg>